<svg id="Layer_1" data-name="Layer 1" xmlns="http://www.w3.org/2000/svg" viewBox="0 0 1080 1080"><defs><style>.cls-1,.cls-3,.cls-4{fill:#efeee2;}.cls-2{fill:#5b4f47;}.cls-3,.cls-4{font-size:72px;}.cls-3,.cls-5{font-family:MyriadPro-Regular, Myriad Pro;}.cls-5{font-weight:400;font-style:normal;}.cls-6{fill:none;font-size:12px;}</style></defs><title>resto</title><circle class="cls-1" cx="542.18" cy="540.18" r="539"/><path class="cls-2" d="M542.18,1002.53c-123.11,0-238.86-48.1-325.92-135.42s-135-203.44-135-326.93,47.95-239.61,135-326.94S419.07,77.82,542.18,77.82s238.87,48.1,325.93,135.42,135,203.44,135,326.94-47.94,239.6-135,326.93S665.3,1002.53,542.18,1002.53Zm0-847.44c-211.68,0-383.89,172.75-383.89,385.09S330.5,925.26,542.18,925.26s383.9-172.75,383.9-385.08S753.87,155.09,542.18,155.09Z"/><path class="cls-2" d="M758.49,413.73c0-5-5.93-9.29-10.92-1.47-7.37,11.51-16.84,44.18-18.16,69.17-1,19.87,3.19,38.47,16.05,42.77-.52,37.6-1.45,93.69-2.11,111.46a5,5,0,0,0,5,5.2h6.25a5,5,0,0,0,5.06-5.2c-.67-17.8-1.53-74-2.12-111.58C757.36,509.89,758.49,417.49,758.49,413.73Z"/><path class="cls-2" d="M325.59,417.34c0-.84-1.57-.84-1.57,0l-.35,52.46a1.84,1.84,0,1,1-3.65,0l-3.34-52.46c0-.84-1.57-.84-1.57,0l-1.66,52.46a1.91,1.91,0,1,1-3.8,0L308,417.34c0-.84-1.58-.84-1.58,0l-3.34,52.46a1.84,1.84,0,1,1-3.65,0l-.34-52.46c0-.84-1.59-.84-1.59,0,0,0-4.42,44.71-5.26,52.41-1,9.34-1.39,18.54,2.62,27.25a23.46,23.46,0,0,0,11,11.48C305.46,539,304.2,622,303.37,644.41a5,5,0,0,0,5.05,5.19h6.25a5,5,0,0,0,5.07-5.19c-.85-22.38-2.11-105.45-2.46-135.93a23.52,23.52,0,0,0,11-11.48c4-8.71,3.63-17.91,2.61-27.25C330,462.05,325.59,417.34,325.59,417.34Z"/><path class="cls-2" d="M605.14,664.07a.31.31,0,0,0-.31-.31.3.3,0,0,0-.32.31c-.23,14.25-140.91,8.33-142,26.29-.42,10.84,37.71,14.36,50.59,16.09,23.51,3,49.7,5.64,56.29,9.84a.56.56,0,0,1,.26.5.55.55,0,0,1-.3.47c-3.88,2-12.83,4.82-20.33,7.83-8.05,3.22-23,9.55-22.39,18.19a.32.32,0,0,0,.3.3.32.32,0,0,0,.34-.3c.48-7.79,15.35-12.53,22.92-14.86,16.73-5.12,25.3-6.35,25.46-11.2.34-10-30.16-13.58-61.76-17.23-6.43-.73-40.7-4-45.88-8.84a.54.54,0,0,1-.17-.43.53.53,0,0,1,.21-.42c7-5.44,53.42-9.88,61-10.71,39.76-4.37,76.32-8.26,76.13-15.49Zm-34.4,52.26,0,0C570.76,716.29,570.77,716.3,570.74,716.33Zm-103.27-25.5h0S467.44,690.87,467.47,690.83Z"/><path class="cls-2" d="M605.62,764.84c1-6.11,1.21-9.94,1.21-9.94H456.32s4.38,85.87,75.23,89.13c24.21-1.13,40.67-11.91,51.82-25.58l0,.08c11.66,1,18.62,4.94,33.2-15.66C641.66,767.35,613.25,764.88,605.62,764.84Zm-74.07,73.71c-62.15-2.88,0-78.18,0-78.18h66S593.75,835.67,531.55,838.55Zm78.62-39c-6.3,8.57-10.09,13-21.88,12.25-.08,0-.12.12-.2.21,9.08-13.55,13.78-28.79,16.24-40.17v0S633.24,768.22,610.17,799.56Z"/><path class="cls-2" d="M533.8,839.32c-54.5,0-103.45-10.55-137.1-27.3,29.35,21.86,79.29,36.24,136,36.24,53.84,0,101.6-13,131.41-33C630.79,830.12,584.72,839.32,533.8,839.32Z"/><path class="cls-2" d="M647.12,293.71a63.2,63.2,0,0,0-39.65-58.44,64,64,0,0,0-108.32-13.86c-34.26.41-61.91,27.94-61.91,61.84,0,29.16,20.45,53.6,48,60.13-5,23.88-10.26,50.93-12,63.54,55.7-18.47,135.15-6.22,135.15-6.22s-5.26-21.9-10.77-45.46C626,348.77,647.12,323.69,647.12,293.71Z"/><path class="cls-1" d="M285.07,171.49l10.73-7.2q6.29-4.22,11,2.83l6.75,10.14q3.59,5.38,1.29,9l15.23,14.56-5.2,3.48L310.19,190.1l-3.31,2.22L318,208.92l-5.48,3.68Zm18.68,16.13,3.6-2.41c1.63-1.09,1.79-2.64.47-4.62l-5.91-8.88q-2-3-4.44-1.33l-3.6,2.41Z"/><path class="cls-1" d="M359.17,184.22l-21.81-44.34L352,132.62l2.64,5.38-8.74,4.33,6.62,13.46L360.3,152l2.64,5.37-7.76,3.84,7.26,14.76,8.75-4.32,2.64,5.37Z"/><path class="cls-1" d="M405,125.8l-1.4-4.11q-.94-2.81-3.68-1.87l-1,.33c-1.78.61-2.35,1.84-1.72,3.71l2.64,7.76c.29.87.66,1.4,1.12,1.58a12.74,12.74,0,0,0,2.08.6l7,1.17a29,29,0,0,1,3.35.79,4.69,4.69,0,0,1,1.78,1.07,8.75,8.75,0,0,1,1.59,3.2l3.39,10q2.67,7.89-4.86,10.47l-3.84,1.31q-7.47,2.55-10.39-6.06l-.8-2.34,6.24-2.14.86,2.55c.62,1.82,1.86,2.42,3.73,1.78l1.1-.38q2.47-.84,1.54-3.58l-2.7-8a2.44,2.44,0,0,0-1.12-1.59,14.47,14.47,0,0,0-2.08-.59l-7.05-1.3a20.36,20.36,0,0,1-3.42-.8,4.25,4.25,0,0,1-1.9-1.42,10.13,10.13,0,0,1-1.4-2.84l-3.25-9.58q-2.73-8,4.75-10.57l3.9-1.34q7.47-2.55,10.2,5.47l1.55,4.56Z"/><path class="cls-1" d="M457.69,104.45l8.54,42.61-6.46,1.3-8.55-42.6L445,107l-1.18-5.88,18.85-3.8,1.18,5.87Z"/><path class="cls-1" d="M510.84,141l-6.58.46-2.78-40.89q-.57-8.45,7.31-9l4.93-.34q7.88-.54,8.45,7.92L525,140.06l-6.58.45-1.23-18.07-7.53.51Zm5.9-24.56L515.62,100a2.55,2.55,0,0,0-3.07-2.69l-1.78.12a2.55,2.55,0,0,0-2.68,3.08L509.2,117Z"/><path class="cls-1" d="M584.16,92.2l-2.75,40c-.43,6.24-3.29,9.16-8.59,8.8l-5.55-.38q-7.87-.56-7.23-10l2.75-39.92,6.58.45L566.6,131.3c-.14,2.15.74,3.29,2.66,3.43l2.67.18c1.78.12,2.75-.89,2.89-3l2.76-40.13Z"/><path class="cls-1" d="M625.35,98,638,100.66q7.39,1.57,5.65,9.85l-2.5,11.93q-1.33,6.34-5.52,7.21l.27,21.11-6.11-1.3L629.64,129l-3.9-.83-4.1,19.55-6.45-1.37Zm1.55,24.69,4.24.89c1.92.41,3.13-.56,3.62-2.89l2.2-10.45q.74-3.51-2.16-4.12l-4.23-.89Z"/><path class="cls-1" d="M673.85,162.11l-6.2-2.24,13.84-38.56q2.87-8,10.29-5.29l4.65,1.68q7.43,2.68,4.57,10.66l-13.84,38.55-6.2-2.24,6.11-17-7.1-2.57ZM689.1,142l5.56-15.48a2.57,2.57,0,0,0-1.74-3.71l-1.68-.6a2.54,2.54,0,0,0-3.69,1.74L682,139.43Z"/><path class="cls-1" d="M742.62,164.61l11.08-21.15,5.84,3.08L736.6,190.31l-5.83-3.08,4.56-8.72,4.19-23.23-15,28.65-5.84-3.08,22.94-43.77,5.83,3.08Z"/><path class="cls-1" d="M799.81,179.31l-25,35.5L769.43,211l25-35.5-5.16-3.66,3.45-4.89,15.7,11.12L805,183Z"/><path class="cls-1" d="M132.92,685.24l5.61-2.07L142,692.6l-22.55,8.34L115,688.79q-2.64-7.17,5.15-10.06l30.54-11.29q7.92-2.93,10.56,4.24l1.57,4.27q2.9,7.88-5.16,10.86l-5,1.86-2.28-6.2,4.12-1.53c2.23-.83,3-2.12,2.38-3.89l-.57-1.55q-1-2.71-4.35-1.47l-28.35,10.48q-3.35,1.23-2.35,4l1.55,4.2,11.33-4.19Z"/><path class="cls-1" d="M135.17,736.06q-3.6-7.12,3.88-10.93l29-14.7q7.53-3.82,11.1,3.24l2.85,5.65q3.57,7.06-4,10.89l-29,14.71q-7.47,3.8-11.07-3.33Zm6.05-1.29,1.52,3q1.17,2.33,3.74,1l28.19-14.31q2.57-1.31,1.24-4l-1.4-2.76a2.54,2.54,0,0,0-3.87-1.28l-28.18,14.31C140.74,731.69,140.33,733,141.22,734.77Z"/><path class="cls-1" d="M161.52,782.18q-4.41-6.66,2.58-11.3l27.06-18q7-4.68,11.4,1.92l3.49,5.28q4.37,6.6-2.67,11.28l-27.07,18q-7,4.64-11.38-2Zm5.85-2,1.86,2.81q1.44,2.19,3.84.58l26.32-17.51c1.6-1.06,1.86-2.42.77-4.06l-1.7-2.59a2.55,2.55,0,0,0-4-.81l-26.32,17.51C166.54,777.19,166.28,778.54,167.37,780.19Z"/><path class="cls-1" d="M188.11,819l37.67-31.89,7.4,8.78q6,7.11-1.26,13.24l-25,21.14c-3.64,3.09-7.16,2.6-10.55-1.43Zm8.81,1.19,3.19,3.79q1.69,2,3.36.58l24.14-20.44c1.82-1.54,2.09-3.06.83-4.57l-3-3.53Z"/><path class="cls-1" d="M278.59,869l-3.78,4.64-6.7-5.5-14.17,17.38-5.1-4.19L280.06,843l12.65,10.38-3.79,4.64-7.54-6.2-9.48,11.62Z"/><path class="cls-1" d="M291.75,913.5q-6.67-4.37-2.1-11.4l17.74-27.29q4.61-7.09,11.22-2.77l5.29,3.46q6.63,4.32,2,11.42l-17.74,27.29q-4.57,7-11.24,2.68Zm4.59-4.16,2.81,1.85q2.19,1.42,3.76-1l17.25-26.54q1.57-2.42-.9-4l-2.58-1.69a2.55,2.55,0,0,0-4,.85l-17.24,26.54C294.39,906.92,294.69,908.27,296.34,909.34Z"/><path class="cls-1" d="M337.57,940.19q-7.14-3.54-3.41-11.08l14.45-29.17q3.76-7.59,10.83-4.06l5.66,2.82q7.06,3.52,3.31,11.11L354,939q-3.73,7.53-10.86,4Zm4.07-4.66,3,1.5c1.56.78,2.76.31,3.62-1.42l14.05-28.37q1.29-2.6-1.36-3.91L358.2,902a2.55,2.55,0,0,0-3.87,1.3l-14.06,28.37C339.42,933.35,339.87,934.65,341.64,935.53Z"/><path class="cls-1" d="M379,958.77l16.68-46.53,10.79,3.89q8.72,3.15,5.51,12.09l-11.06,30.85q-2.42,6.73-9.84,4.06Zm8.22-3.4,4.65,1.68q2.46.88,3.2-1.19l10.69-29.81c.8-2.25.28-3.7-1.57-4.37l-4.33-1.56Z"/><path class="cls-1" d="M481.91,959.38q5.13,2.31,4.51,6.4L484.54,978q-1.11,7.28-8.51,6.14l-13.1-2,7.48-48.88L481.54,935q8.68,1.34,7.33,10.19l-1.43,9.39c-.44,2.82-2.26,4.3-5.48,4.46Zm-11.56,17.87,4.89.75c1.72.26,2.68-.31,2.9-1.71l1.66-10.83q.52-3.47-3.34-4.07l-3.6-.55Zm3.42-22.33,3.05.47q3.74.57,4.28-3l1.16-7.62q.54-3.54-2.37-4l-3.87-.6Z"/><path class="cls-1" d="M520.39,988.47l-6.58-.26,1.57-41q.33-8.46,8.21-8.16l4.94.19q7.89.32,7.57,8.78L534.53,989l-6.59-.25.7-18.1-7.55-.29Zm8.48-23.8.63-16.45a2.55,2.55,0,0,0-2.77-3l-1.79-.07a2.55,2.55,0,0,0-3,2.78l-.63,16.45Z"/><path class="cls-1" d="M561.85,939.22l12.87-1.06q7.53-.63,8.22,7.81l1,12.15q.52,6.45-3.23,8.49L587,986.75l-6.23.52-5.95-19.54-4,.32L572.49,988l-6.57.54Zm8.53,23.21,4.31-.36c2-.16,2.85-1.44,2.65-3.81l-.87-10.64q-.3-3.57-3.24-3.33l-4.31.36Z"/><path class="cls-1" d="M657.15,974.21l-6.36,1.71-10.62-39.56q-2.2-8.19,5.42-10.24l4.78-1.29q7.62-2.07,9.82,6.12l10.62,39.57-6.37,1.72-4.69-17.49-7.29,2Zm1-25.25-4.26-15.89c-.5-1.86-1.68-2.55-3.53-2l-1.73.46a2.55,2.55,0,0,0-2,3.54l4.26,15.9Z"/><path class="cls-1" d="M703.73,931.85l-8.79-22.22,6.13-2.43,18.17,46-6.13,2.44-3.61-9.16-14.85-18.32,11.89,30.09-6.12,2.44-18.18-46,6.13-2.44Z"/><path class="cls-1" d="M747.88,939.81l-23.31-43.57,10.1-5.44q8.18-4.39,12.65,4l15.46,28.89q3.38,6.3-3.58,10.05Zm3-8.4,4.35-2.35c1.53-.82,2-1.88,1.26-3.18L741.55,898q-1.69-3.15-4.29-1.76l-4,2.19Z"/><path class="cls-1" d="M829.34,871.52l2,2.45q5.28,6.53-.84,11.52l-3.3,2.69q-6.13,5-11.42-1.52l-20.53-25.33q-5.28-6.51.84-11.51l3.31-2.7q6.12-5,11.41,1.52l3.5,4.33-5.11,4.17-3.2-3.95c-1.22-1.5-2.59-1.62-4.11-.38l-1,.83c-1.35,1.1-1.41,2.4-.2,3.9l19.92,24.58q1.83,2.24,3.85.59l1.28-1.05c1.35-1.1,1.41-2.39.2-3.89l-1.69-2.08Z"/><path class="cls-1" d="M864.45,854.48q-5.57,5.7-11.55-.18l-23.2-22.79q-6-5.94-.5-11.59l4.42-4.53q5.52-5.65,11.56.28l23.19,22.79q6,5.89.41,11.59Zm-3.16-5.33,2.36-2.41q1.83-1.86-.23-3.89l-22.56-22.17c-1.38-1.35-2.75-1.32-4.13.09L834.57,823a2.56,2.56,0,0,0,0,4.09l22.56,22.17C858.54,850.59,859.92,850.56,861.29,849.15Z"/><path class="cls-1" d="M881.85,791.22l4.69,3.71-5.35,6.81,17.59,13.9-4.08,5.19L856,790.23l10.11-12.87,4.69,3.7-6,7.68L876.5,798Z"/><path class="cls-1" d="M906,755.68l5,3.22-4.65,7.31,18.88,12.06-3.54,5.58-41.58-26.56L889,743.47l5,3.21-5.24,8.25L901.37,763Z"/><path class="cls-1" d="M945,744.31l-44-22.23,7.34-14.64,5.33,2.69-4.38,8.74,13.37,6.75,3.89-7.76,5.34,2.7L928,728.31l14.66,7.4L947,727l5.34,2.7Z"/><path class="cls-1" d="M964.26,702.38,918.2,684.76,924,669.44l5.59,2.14-3.48,9.14,14,5.35L943.2,678l5.58,2.13-3.09,8.11L961,694.07l3.47-9.14,5.58,2.14Z"/><path class="cls-1" d="M117.69,581.27c-1.29-13.56-2-27.39-2-41.09A427.25,427.25,0,0,1,245.85,232.57l4.66,4.83C167.92,317.47,122.44,425,122.44,540.18c0,13.49.65,27.1,1.92,40.46Z"/><path class="cls-1" d="M966.41,584.06l-6.67-.68a428.25,428.25,0,0,0,2.19-43.2c0-112.47-43.67-218.2-122.94-297.72l4.73-4.75c80.55,80.79,124.9,188.21,124.9,302.47A435.86,435.86,0,0,1,966.41,584.06Z"/><path class="cls-2" d="M563.38,524.69,769.4,318l-5.76-5.77-206,206.66A26.27,26.27,0,0,1,563.38,524.69Z"/><path class="cls-2" d="M526.75,518.92l-206-206.66L315,318,521,524.69A26.27,26.27,0,0,1,526.75,518.92Z"/><path class="cls-2" d="M557.62,561.43l206,206.66,5.76-5.77-206-206.66A26.27,26.27,0,0,1,557.62,561.43Z"/><path class="cls-2" d="M521,555.66,315,762.32l5.76,5.77,206-206.66A26.27,26.27,0,0,1,521,555.66Z"/><path class="cls-1" d="M443,952a7.91,7.91,0,1,1-7.91-7.93A7.92,7.92,0,0,1,443,952Z"/><path class="cls-2" d="M542.5,78.5c-254.6,0-461,206.4-461,461s206.4,461,461,461,461-206.4,461-461S797.1,78.5,542.5,78.5Zm0,844c-211.53,0-383-171.47-383-383s171.47-383,383-383,383,171.47,383,383S754,922.5,542.5,922.5Z"/><text class="cls-3" transform="matrix(0.74, -0.67, 0.67, 0.74, 259.95, 252.3)">R</text><text class="cls-3" transform="matrix(0.8, -0.6, 0.6, 0.8, 288.99, 226.28)">E</text><text class="cls-3" transform="matrix(0.85, -0.52, 0.52, 0.85, 317.6, 204.99)">S</text><text class="cls-3" transform="matrix(0.9, -0.45, 0.45, 0.9, 348.03, 186.27)">T</text><text class="cls-3" transform="translate(378.42 170.66) rotate(-20.57)">O</text><text class="cls-3" transform="translate(425.25 153.43) rotate(-14.17)">R</text><text class="cls-3" transform="translate(463.4 143.68) rotate(-8.14)">A</text><text class="cls-3" transform="translate(507.35 137.33) rotate(-1.61)">N</text><text class="cls-3" transform="translate(554.9 136.62) rotate(2.82)"> </text><text class="cls-3" transform="translate(570.33 137) rotate(6.64)">P</text><text class="cls-3" transform="translate(608.74 141.17) rotate(12.98)">O</text><text class="cls-3" transform="translate(657.4 152.47) rotate(20)">N</text><text class="cls-3" transform="translate(702.23 168.79) rotate(26.89)">D</text><text class="cls-3" transform="matrix(0.83, 0.56, -0.56, 0.83, 745.35, 190.63)">O</text><text class="cls-3" transform="matrix(0.76, 0.65, -0.65, 0.76, 786.58, 218.72)">K</text><text class="cls-3" transform="translate(176.56 788.92) rotate(52.27)">O</text><text class="cls-3" transform="translate(210.61 832.37) rotate(45.18)">O</text><text class="cls-3" transform="translate(249.7 871.16) rotate(38.21)">D</text><text class="cls-3" transform="translate(290.63 902.37) rotate(33.68)"> </text><text class="cls-3" transform="matrix(0.87, 0.5, -0.5, 0.87, 305.56, 912.59)">F</text><text class="cls-3" transform="translate(340.02 932.69) rotate(23.95)">O</text><text class="cls-3" transform="translate(390.67 954.81) rotate(16.77)">O</text><text class="cls-3" transform="translate(443.59 970.34) rotate(9.72)">D</text><text class="cls-3" transform="matrix(1, 0.09, -0.09, 1, 494.46, 978.25)"> </text><text class="cls-3" transform="matrix(1, 0.05, -0.05, 1, 511.46, 979.77)">|</text><text class="cls-3" transform="matrix(1, 0.02, -0.02, 1, 529.93, 980.61)"> </text><text class="cls-3" transform="translate(548.7 981.15) rotate(-3.28)">B</text><text class="cls-3" transform="matrix(0.99, -0.16, 0.16, 0.99, 592.33, 978.54)">A</text><text class="cls-3" transform="translate(640.39 970.34) rotate(-15.21)">R</text><text class="cls-3" transform="translate(680.58 958.89) rotate(-19.13)"> </text><text class="cls-3" transform="translate(696.72 953.27) rotate(-21.48)">|</text><text class="cls-3" transform="translate(714.42 946.24) rotate(-23.83)"> </text><text class="cls-3" transform="translate(731.47 939.11) rotate(-27.94)">C</text><text class="cls-3" transform="translate(771.47 917.92) rotate(-34.29)">O</text><text class="cls-3" transform="translate(815.99 886.79) rotate(-40.35)">F</text><text class="cls-3" transform="translate(845.61 861.41) rotate(-45.36)">F</text><text class="cls-3" transform="matrix(0.64, -0.77, 0.77, 0.64, 872.89, 833.55)">E</text><text class="cls-4" transform="matrix(0.57, -0.82, 0.82, 0.57, 897.87, 803.07)"><tspan class="cls-5">E</tspan><tspan class="cls-6"></tspan></text><path class="cls-1" d="M173.33,779.76a45.16,45.16,0,0,1-9.93-11.43c-3.76-6.31-5.25-12.46-3.8-18.87,1.33-5.65,5.56-11.2,12.05-15.07,12.47-7.36,26.65-4.25,35,9.72a30.09,30.09,0,0,1,4.29,11.53L205.76,757a25.18,25.18,0,0,0-3.7-10.28c-6.06-10.14-16.31-13-26.76-6.75s-13,16.41-7.22,26.11c2.1,3.53,4,5.64,5.39,6.51l12.43-7.42-5.06-8.47,4.33-2.58,8.19,13.72Z"/><path class="cls-1" d="M224.87,810.9c-13.21,10.22-26.43,7.61-34-2.19-7.84-10.13-5.49-23.33,6.13-32.32,12.19-9.43,26-8,33.95,2.23C239,789.1,236.26,802.09,224.87,810.9ZM201.2,781.6c-8.2,6.34-12.11,16.47-6.07,24.27s16.74,6.71,25.46,0c7.63-5.9,12.52-16.05,6.13-24.31S209.63,775.08,201.2,781.6Z"/><path class="cls-1" d="M261.27,848.21c-11.85,11.78-25.29,10.82-34,2-9-9.09-8.33-22.47,2.08-32.83,10.93-10.86,24.83-11.17,34-2C272.65,824.83,271.48,838.06,261.27,848.21Zm-27.1-26.15c-7.36,7.31-10,17.84-3,24.84s17.44,4.58,25.26-3.18c6.84-6.8,10.44-17.48,3.08-24.89S241.73,814.55,234.17,822.06Z"/><path class="cls-1" d="M283.61,836.92a88.58,88.58,0,0,1,11.09,7.45c7.07,5.56,10.82,11.17,11.71,16.9S305.86,873,301,879.2s-10.83,9.8-17.16,10.5-13.76-2-21.17-7.78a101.71,101.71,0,0,1-8.59-7.49ZM262,874.52a40.26,40.26,0,0,0,4.75,4.2c10.53,8.28,20.87,6.89,29-3.41,7.13-8.95,6.54-18.67-3.87-26.86a35,35,0,0,0-6.18-4Z"/><path class="cls-1" d="M334.61,873.33l22.62,13.09L354.59,891,337.4,881l-8.09,14,15.9,9.2-2.6,4.48-15.89-9.2-11,19-5.43-3.14Z"/><path class="cls-1" d="M393,929.12c-6.79,15.26-19.66,19.23-31,14.21-11.71-5.21-15.9-17.94-9.93-31.37,6.25-14.08,19.1-19.4,30.94-14.14C395.12,903.2,398.82,916,393,929.12Zm-34.74-14.57c-4.21,9.48-2.85,20.24,6.17,24.25s17.92-2,22.4-12.11c3.91-8.81,3.4-20.07-6.14-24.31S362.57,904.81,358.24,914.55Z"/><path class="cls-1" d="M442.77,944.64c-4.82,16-17.1,21.54-29,18-12.27-3.7-18-15.81-13.78-29.87,4.45-14.76,16.53-21.65,28.94-17.91C441.65,918.66,446.93,930.85,442.77,944.64Zm-36.28-10.11c-3,9.93-.3,20.44,9.14,23.29s17.53-4.27,20.71-14.82c2.79-9.23.87-20.34-9.12-23.35S409.56,924.33,406.49,934.53Z"/><path class="cls-1" d="M457.06,924.07a91.37,91.37,0,0,1,13.3,1.25c8.87,1.52,14.84,4.66,18.36,9.28s5.12,10.59,3.8,18.33-4.84,13.78-10.07,17.42-13,4.85-22.32,3.26A100.17,100.17,0,0,1,449,971.12ZM456,967.42a38.11,38.11,0,0,0,6.18,1.43c13.2,2.26,21.63-3.9,23.84-16.81,2-11.27-3.15-19.54-16.21-21.77a35.09,35.09,0,0,0-7.35-.6Z"/><path class="cls-1" d="M525.16,926.39l-3.6,71.91-4.82-.24,3.6-71.91Z"/><path class="cls-1" d="M551.42,933a60.8,60.8,0,0,1,11.37-1.66c6.25-.36,10.34.49,13.5,2.76a10.18,10.18,0,0,1,4.52,8.32c.26,4.68-2.59,8.95-7.59,11.11v.15c4.67.88,10.28,4.38,10.69,11.57a13.07,13.07,0,0,1-3.54,9.94c-3.2,3.28-8.59,5-16.49,5.49a72.39,72.39,0,0,1-9.74,0Zm7.39,19.48,5.68-.32c6.61-.38,10.3-4.06,10-8.73-.33-5.68-4.77-7.66-11.09-7.29a26.85,26.85,0,0,0-5.51.74Zm1.33,23.22a33.78,33.78,0,0,0,5.26,0c6.47-.37,12.31-3.09,11.9-10.13-.38-6.62-6.21-9-13-8.63l-5.18.3Z"/><path class="cls-1" d="M603,961.34l-2.52,15.87-6.4,1,8.49-50.54,7.46-1.21,24.13,45.24-6.61,1.07L620,958.58ZM617.94,954l-6.93-13c-1.57-2.95-2.75-5.68-3.91-8.33l-.14,0c-.25,3-.56,6-1,9.06l-2.44,14.62Z"/><path class="cls-1" d="M633.1,922.71a64.74,64.74,0,0,1,11.34-4.13c6.46-1.76,10.95-1.71,14.59.14a12.07,12.07,0,0,1,6.1,7.89c1.68,6.18-1.1,11.34-5.58,14.35l.06.21c3.95.26,7,3,9.45,7.58,3.3,6.11,5.64,10.32,7.11,11.87l-6.26,1.7c-1.12-1.12-3.26-4.86-6.17-10.34-3.14-6.08-6.3-7.83-11.85-6.55l-5.7,1.55,5.52,20.28-6,1.65ZM645,942.39l6.18-1.68c6.46-1.75,9.6-6.41,8.14-11.76-1.64-6.05-6.73-7.5-13.15-5.83a26.41,26.41,0,0,0-5.82,2.18Z"/><path class="cls-1" d="M687.2,899l26.36,67-4.48,1.76-26.37-67Z"/><path class="cls-1" d="M765.52,919.26c-1.49,2.1-5,5.27-10.24,8-12.09,6.41-25.23,3.6-32.69-10.46-7.12-13.42-2.85-27.34,10.45-34.39,5.34-2.84,9.32-3.48,11.19-3.49l1.06,5.22a22.92,22.92,0,0,0-9.6,2.81c-10.05,5.33-13.32,15.3-7.35,26.56,5.57,10.49,15.19,14,25.62,8.5a25.12,25.12,0,0,0,8.09-6.57Z"/><path class="cls-1" d="M796.3,871c9.41,13.8,6,26.83-4.22,33.81-10.59,7.22-23.62,4.08-31.89-8.05-8.68-12.73-6.45-26.45,4.26-33.75C775.39,855.56,788.19,859.12,796.3,871Zm-30.66,21.87c5.84,8.56,15.71,13.07,23.86,7.51S797.19,884.09,791,875c-5.44-8-15.28-13.46-23.9-7.58S759.63,884.08,765.64,892.89Z"/><path class="cls-1" d="M788.75,846.27l19.91-16.92,3.41,4-15.15,12.87,10.44,12.29,14-11.89,3.35,4-14,11.89,14.22,16.73-4.77,4.06Z"/><path class="cls-1" d="M814.92,823.42l18.36-18.6,3.74,3.69-14,14.15L834.53,834l12.9-13.07,3.69,3.64-12.9,13.07,15.63,15.43-4.4,4.45Z"/><path class="cls-1" d="M874.86,795.46l-12,14.54,13.48,11.15,13.4-16.2,4,3.35-17.39,21L839,798.39l16.71-20.19,4,3.35L847,796.92l11.81,9.77,12-14.53Z"/><path class="cls-1" d="M896.47,765,885.78,780.5l14.42,9.92,11.91-17.32,4.33,3L901,798.56l-40-27.5,14.85-21.59,4.33,3-11.3,16.43,12.63,8.69L892.2,762Z"/><path class="cls-1" d="M938.25,370.32a427.59,427.59,0,0,0-54.14-93.25c-1.43-1.86-2.87-3.72-4.34-5.56q-3.4-4.33-7-8.59c-1.49-1.8-3-3.59-4.54-5.36l-5.11,5.11q2.28,2.65,4.53,5.37,3.52,4.24,7,8.6,2.18,2.78,4.31,5.59A422.16,422.16,0,0,1,945.78,663.6c-.78,2.5-1.59,5-2.42,7.48q-1.93,5.8-4,11.53c-.89,2.4-1.79,4.8-2.72,7.18l5.48,5.48c.95-2.38,1.86-4.76,2.75-7.15q2.14-5.7,4.11-11.45c.85-2.47,1.68-4.95,2.47-7.43a431.38,431.38,0,0,0-13.17-298.92Zm-745.65-82q-3.27,4.55-6.38,9.18c-1.34,2-2.65,3.95-3.95,5.95A431.08,431.08,0,0,0,123.86,634q.9,4,1.91,8,1.55,6.16,3.27,12.29,1.08,3.84,2.25,7.65L137,656.2q-1.14-3.84-2.19-7.71-1.68-6.15-3.17-12.39c-.65-2.67-1.26-5.35-1.85-8.05a422.5,422.5,0,0,1,57.71-319.39q2-3,3.93-6,3.12-4.65,6.36-9.2c1.36-1.93,2.74-3.84,4.16-5.74l-5.17-5.17C195.35,284.48,194,286.4,192.6,288.32Z"/></svg>